<?xml version="1.0" encoding="utf-8"?>
<!-- Generator: Adobe Illustrator 16.0.0, SVG Export Plug-In . SVG Version: 6.00 Build 0)  -->
<!DOCTYPE svg PUBLIC "-//W3C//DTD SVG 1.1//EN" "http://www.w3.org/Graphics/SVG/1.1/DTD/svg11.dtd">
<svg version="1.1" id="图层_1" xmlns="http://www.w3.org/2000/svg" xmlns:xlink="http://www.w3.org/1999/xlink" x="0px" y="0px"
	 width="273.27px" height="110.01px" viewBox="0 0 273.27 110.01" enable-background="new 0 0 273.27 110.01" xml:space="preserve">
<path fill="#FFFFFF" d="M62.986,97.584L49.75,110h-9.918H11.333L0,85.668l16.083-7.334l5.5,13.25h13.844l4.405-4V0h23.154V97.584z
	 M49.956,5.032v12.078h4.25V5.032H49.956z M49.956,33.234h4.25V21.157h-4.25V33.234z M49.956,49.276h4.25V37.199h-4.25V49.276z
	 M49.956,66.418h4.25V54.339h-4.25V66.418z M49.956,84.584h4.25V72.506h-4.25V84.584z M41.679,99.184l3.005,3.006l8.541-8.541
	l-3.005-3.004L41.679,99.184z M23.944,98.586v4.25h12.078v-4.25H23.944z M8.78,87.912l5.65,10.674l3.756-1.988l-5.65-10.674
	L8.78,87.912z"/>
<rect x="90.111" y="86.696" transform="matrix(-0.5098 -0.8603 0.8603 -0.5098 66.4683 217.0947)" fill="#00AA30" width="9.955" height="5.827"/>
<path fill="#FFFFFF" d="M83.79,92.699l-7.833,4.143V0.001h7.833V92.699z M97.444,0.001h-7.39v91.059l2.528,4.314h4.862V0.001z
	 M91.365,105.482L83.79,92.699l-7.833,4.143l7.77,13.168L91.365,105.482z M127.27,100.752H83.68V110h43.59V100.752z M127.27,88.605
	H95.333v6.77h31.936L127.27,88.605L127.27,88.605z M132.249,88.605h-3.042V110h3.042V88.605z M137.124,88.605h-2.833V110h2.833
	V88.605z"/>
<polygon fill="#FFFFFF" points="160.395,110 139.29,110 139.29,18.688 160.395,48.62 "/>
<polygon fill="#FFFFFF" points="251.926,110 273.031,110 273.031,19.538 251.926,49.469 "/>
<polygon fill="#8EE77F" points="178.457,75.162 139.29,18.688 144.624,0.001 163.374,0.001 193.582,59.875 "/>
<polygon fill="#8EE77F" points="234.104,75.164 273.27,18.688 267.936,0.003 249.186,0.003 218.979,59.877 218.979,62.334 
	232.833,75.164 "/>
<path fill="#FFFFFF" d="M205.645,56.328h0.303l0.333,11.352l-0.571,0.57l-5.252-4.063h-6.875v-4.313L163.374,0.001L176.291,0
	L205.645,56.328z M206.915,56.33h-0.97l0.334,11.35l0.572,0.572l5.25-4.063h6.877v-4.313l30.205-59.875L236.27,0.001L206.915,56.33z
	"/>
<path fill="#E4CC94" d="M227.076,89.652l-5.313-5.313c-0.473-0.471-16.459-16.912-16.459-16.912c-4.111-4.111-10.781-4.111-14.893,0
	l-3.725,3.725c-4.11,4.111-4.11,10.779,0,14.893l14.894,14.893c0.83,0.83,1.769,1.484,2.767,1.979
	c0.137,0.254,0.297,0.496,0.512,0.711l4.291,4.291c1.185,1.184,3.105,1.184,4.291,0c0.707-0.707,0.981-1.676,0.846-2.594
	c1.135,0.063,2.29-0.324,3.156-1.191c0.802-0.801,1.203-1.848,1.209-2.896c1.218,0.145,2.484-0.232,3.416-1.166
	c0.945-0.943,1.322-2.232,1.162-3.465c1.34,0.307,2.803-0.053,3.847-1.098C228.691,93.891,228.691,91.27,227.076,89.652z"/>
<g>
	<path fill="#9E8446" d="M225.742,70.809l-3.536-3.537c-3.903-3.902-10.237-3.902-14.142,0l-1.461,1.461
		c0.006,0.004,0.011,0.01,0.016,0.016c-0.115,0.082-0.229,0.166-0.331,0.27l-7.41,7.41c-1.022,1.023-1.022,2.682,0,3.705
		c1.022,1.021,2.683,1.021,3.705,0l7.409-7.41c0.096-0.096,0.174-0.203,0.252-0.309c5.309,5.42,10.484,10.895,13.813,14.223
		l1.687-1.686C229.646,81.045,229.646,74.713,225.742,70.809z"/>
	<path fill="#9E8446" d="M197.741,94.75c1.207-1.205,1.207-3.162,0-4.367c-1.185-1.188-3.089-1.201-4.3-0.057
		c1.123-1.211,1.104-3.1-0.074-4.277c-1.205-1.207-3.161-1.207-4.368,0l-4.368,4.369c-1.207,1.207-1.207,3.162,0,4.369
		c1.184,1.184,3.086,1.197,4.297,0.057c-1.119,1.213-1.101,3.1,0.077,4.275c1.205,1.207,3.161,1.207,4.368,0L197.741,94.75z"/>
	<path fill="#9E8446" d="M202.325,99.148c1.207-1.207,1.207-3.162,0-4.369c-1.205-1.205-3.161-1.205-4.368,0l-4.368,4.369
		c-1.207,1.207-1.207,3.162,0,4.369c1.205,1.205,3.161,1.205,4.368,0L202.325,99.148z"/>
	<path fill="#9E8446" d="M202.98,99.238l-4.369,4.367c-1.206,1.207-1.206,3.164,0,4.369c1.205,1.207,3.162,1.207,4.369,0
		l4.367-4.369c1.207-1.205,1.207-3.162,0-4.367C206.145,98.031,204.188,98.031,202.98,99.238z"/>
</g>
<circle fill="#FFFFFF" cx="168.029" cy="53.823" r="2.478"/>
<circle fill="#FFFFFF" cx="171.998" cy="60.104" r="2.478"/>
<circle fill="#FFFFFF" cx="175.998" cy="66.541" r="2.479"/>
<circle fill="#FFFFFF" cx="236.207" cy="66.248" r="2.479"/>
</svg>
