<?xml version="1.0" encoding="utf-8"?>
<!-- Generator: Adobe Illustrator 16.0.0, SVG Export Plug-In . SVG Version: 6.00 Build 0)  -->
<!DOCTYPE svg PUBLIC "-//W3C//DTD SVG 1.1//EN" "http://www.w3.org/Graphics/SVG/1.1/DTD/svg11.dtd">
<svg version="1.1" id="图层_1" xmlns="http://www.w3.org/2000/svg" xmlns:xlink="http://www.w3.org/1999/xlink" x="0px" y="0px"
	 width="50px" height="50px" viewBox="0 0 50 50" enable-background="new 0 0 50 50" xml:space="preserve">
<path fill="#666" d="M50,21.08c0.006,3.457-2.792,6.263-6.248,6.271c-3.459-0.006-6.257-2.813-6.252-6.271l0,0
	c0.006,3.457-2.791,6.263-6.248,6.271c-3.458-0.006-6.257-2.813-6.252-6.271l0,0c0.005,3.457-2.792,6.263-6.249,6.271
	c-3.458-0.004-6.258-2.81-6.255-6.267c0-0.002,0-0.003,0-0.003c0.006,3.457-2.792,6.263-6.249,6.271
	C2.792,27.343-0.005,24.537,0,21.08L4.395,9.322h41.212L50,21.08z M42.189,6.973H7.812C6.516,6.97,5.467,5.917,5.468,4.621
	c0-1.294,1.048-2.345,2.343-2.349h34.378c1.295,0.003,2.343,1.054,2.343,2.349c0,1.295-1.048,2.346-2.343,2.349V6.973z
	 M7.032,29.663c0.225-0.023,0.444-0.057,0.664-0.096l0.144-0.02c0.101-0.018,0.197-0.049,0.298-0.07
	c0.422-0.096,0.839-0.221,1.237-0.377v11.57h31.252V29.106c0.398,0.158,0.814,0.275,1.237,0.377c0.1,0.02,0.197,0.051,0.301,0.07
	l0.141,0.018c0.995,0.176,2.014,0.168,3.007-0.018v15.824c0,1.295-1.048,2.348-2.343,2.35H7.032
	c-1.295-0.002-2.343-1.055-2.343-2.35V29.554C5.461,29.696,6.249,29.733,7.032,29.663z"/>
</svg>
