<?xml version="1.0" encoding="utf-8"?>
<!-- Generator: Adobe Illustrator 16.0.0, SVG Export Plug-In . SVG Version: 6.00 Build 0)  -->
<!DOCTYPE svg PUBLIC "-//W3C//DTD SVG 1.1//EN" "http://www.w3.org/Graphics/SVG/1.1/DTD/svg11.dtd">
<svg version="1.1" id="图层_1" xmlns="http://www.w3.org/2000/svg" xmlns:xlink="http://www.w3.org/1999/xlink" x="0px" y="0px"
	 width="110px" height="110px" viewBox="0 0 110 110" enable-background="new 0 0 110 110" xml:space="preserve">
<path fill="#666" d="M47.683,14.544c3.046,9.254,11.537,9.239,14.574,0c1.004-0.527,2.033-2.093,2.209-3.383
	c0.18-1.35,0.072-3.151-1.295-3.151C62.876,3.67,60.493,0,55.089,0c-5.293,0-7.987,3.183-8.318,8.01
	c-1.367,0-1.474,1.801-1.294,3.151C45.649,12.451,46.681,14.017,47.683,14.544z"/>
<path fill="#666" d="M73.685,58.008V31.661c0-4.625-3.371-8.624-8.086-9.61l-3.449-0.718l-7.181,14.312l-7.177-14.312
	l-3.448,0.718c-4.718,0.987-8.083,4.986-8.083,9.61v26.347c0,3.546,2.869,6.412,6.411,6.412v39.168c0,3.541,2.871,6.412,6.413,6.412
	H60.86c3.541,0,6.412-2.871,6.412-6.412V64.42C70.813,64.42,73.685,61.554,73.685,58.008z"/>
<path fill="#666" d="M23.73,30.166c1.816,5.52,5.945,7.013,9.083,4.629v-3.134c0-3.328,1.335-6.413,3.512-8.788
	c-0.731-2.753-2.713-4.836-6.423-4.836c-4.409,0-6.656,2.653-6.934,6.68c-1.141,0-1.227,1.501-1.077,2.625
	C22.035,28.418,22.896,29.726,23.73,30.166z"/>
<path fill="#666" d="M39.224,67.244c-3.74-1.401-6.41-5.016-6.41-9.236V41.765l-3.008,5.992l-5.985-11.93l-2.873,0.598
	c-3.935,0.82-6.742,4.157-6.742,8.012v21.969c0,2.948,2.395,5.341,5.347,5.341v32.656c0,2.956,2.395,5.349,5.347,5.349h9.82
	c2.251,0,4.172-1.396,4.96-3.37c-0.267-0.894-0.455-1.816-0.455-2.794V67.244z"/>
<path fill="#666" d="M77.192,34.795c3.137,2.384,7.264,0.891,9.082-4.629c0.838-0.44,1.693-1.748,1.838-2.824
	c0.15-1.124,0.064-2.625-1.076-2.625c-0.277-4.027-2.521-6.68-6.934-6.68c-3.713,0-5.695,2.083-6.422,4.836
	c2.174,2.375,3.512,5.46,3.512,8.788V34.795z"/>
<path fill="#666" d="M89.056,36.425l-2.875-0.598l-5.98,11.93l-3.008-5.992v16.243c0,4.221-2.674,7.835-6.412,9.236v36.344
	c0,0.978-0.188,1.9-0.453,2.794c0.787,1.974,2.705,3.37,4.961,3.37h9.816c2.953,0,5.35-2.393,5.35-5.349V71.747
	c2.947,0,5.34-2.393,5.34-5.341V44.437C95.794,40.582,92.991,37.245,89.056,36.425z"/>
</svg>
